<?xml version="1.0" encoding="UTF-8"?>
<svg width="100" height="40" viewBox="0 0 100 40" fill="none" xmlns="http://www.w3.org/2000/svg">
  <path d="M20.5 8H79.5C84.7467 8 89 12.2533 89 17.5V22.5C89 27.7467 84.7467 32 79.5 32H20.5C15.2533 32 11 27.7467 11 22.5V17.5C11 12.2533 15.2533 8 20.5 8Z" fill="#FF5F00"/>
  <path d="M35.7324 14.6667V25.3333H32.2676V14.6667H35.7324ZM44.9327 14.6667L40.2676 19.3333L45 25.3333H40.8L36.7324 19.8667L40.6676 14.6667H44.9327ZM53.4 14.6667V25.3333H49.9351V14.6667H53.4ZM62.6003 14.6667L57.9351 19.3333L62.6676 25.3333H58.4676L54.4 19.8667L58.3351 14.6667H62.6003Z" fill="white"/>
</svg>
